<svg xmlns="http://www.w3.org/2000/svg" xmlns:xlink="http://www.w3.org/1999/xlink" width="500" zoomAndPan="magnify" viewBox="0 0 375 374.999991" height="500" preserveAspectRatio="xMidYMid meet" version="1.2"><defs><clipPath id="ede3930f0b"><path d="M 5.257812 156 L 254 156 L 254 309.375 L 5.257812 309.375 Z M 5.257812 156 "/></clipPath></defs><g id="4f24fb786e"><path style=" stroke:none;fill-rule:nonzero;fill:#bf726b;fill-opacity:1;" d="M 325.492188 193.3125 C 320.101562 195.746094 314.171875 195.398438 309.292969 192.882812 C 307.933594 198.207031 304.277344 202.886719 298.886719 205.320312 C 289.488281 209.554688 278.4375 205.375 274.203125 195.976562 C 269.96875 186.578125 274.148438 175.527344 283.535156 171.292969 C 288.925781 168.859375 294.855469 169.207031 299.734375 171.710938 C 301.09375 166.398438 304.75 161.71875 310.140625 159.285156 C 319.539062 155.050781 330.589844 159.234375 334.824219 168.628906 C 339.058594 178.027344 334.890625 189.066406 325.492188 193.3125 Z M 365.90625 186.160156 L 316.984375 77.722656 C 313.179688 69.304688 303.203125 65.527344 294.785156 69.332031 L 128.671875 144.269531 L 236.546875 144.269531 C 252.761719 144.269531 265.949219 157.457031 265.949219 173.671875 L 265.949219 249.660156 L 357.515625 208.359375 C 365.921875 204.554688 369.699219 194.578125 365.90625 186.160156 "/><g clip-rule="nonzero" clip-path="url(#ede3930f0b)"><path style=" stroke:none;fill-rule:nonzero;fill:#bf726b;fill-opacity:1;" d="M 5.214844 194.710938 L 253.3125 194.710938 L 253.324219 173.457031 C 253.324219 164.234375 245.769531 156.679688 236.546875 156.679688 L 21.976562 156.679688 C 12.753906 156.679688 5.199219 164.234375 5.199219 173.457031 Z M 5.199219 292.4375 C 5.199219 301.660156 12.753906 309.203125 21.976562 309.203125 L 236.546875 309.203125 C 245.769531 309.203125 253.324219 301.660156 253.324219 292.4375 L 253.3125 220.523438 L 5.214844 220.523438 Z M 96.484375 252.117188 L 22.824219 252.117188 L 22.824219 242.371094 L 96.484375 242.371094 Z M 96.484375 271.210938 L 22.824219 271.210938 L 22.824219 261.460938 L 96.484375 261.460938 Z M 96.484375 290.3125 L 22.824219 290.3125 L 22.824219 280.566406 L 96.484375 280.566406 L 96.484375 290.3125 "/></g></g></svg>