<svg xmlns="http://www.w3.org/2000/svg" xmlns:xlink="http://www.w3.org/1999/xlink" width="500" zoomAndPan="magnify" viewBox="0 0 375 374.999991" height="500" preserveAspectRatio="xMidYMid meet" version="1.2"><defs><clipPath id="155a29d8f4"><path d="M 55 126 L 349 126 L 349 354.582031 L 55 354.582031 Z M 55 126 "/></clipPath></defs><g id="b86765123c"><path style=" stroke:none;fill-rule:nonzero;fill:#bf726b;fill-opacity:1;" d="M 217.375 108.289062 L 188.789062 94.527344 C 187.964844 94.128906 186.992188 94.128906 186.15625 94.527344 L 104.917969 133.558594 C 103.867188 134.0625 103.195312 135.121094 103.195312 136.292969 C 103.195312 137.457031 103.863281 138.519531 104.914062 139.027344 L 133.5 152.792969 C 133.921875 152.996094 134.367188 153.097656 134.824219 153.097656 C 135.269531 153.097656 135.722656 152.992188 136.140625 152.792969 L 217.375 113.761719 C 218.433594 113.253906 219.097656 112.1875 219.097656 111.023438 C 219.09375 109.851562 218.433594 108.792969 217.375 108.289062 Z M 217.375 108.289062 "/><path style=" stroke:none;fill-rule:nonzero;fill:#bf726b;fill-opacity:1;" d="M 90.976562 150.386719 C 90.09375 150.941406 89.554688 151.914062 89.554688 152.957031 L 89.554688 243.117188 C 89.554688 244.285156 90.222656 245.34375 91.273438 245.851562 L 175.683594 286.496094 C 176.101562 286.695312 176.554688 286.785156 177 286.785156 C 177.566406 286.785156 178.125 286.632812 178.621094 286.328125 C 179.503906 285.777344 180.039062 284.800781 180.039062 283.757812 L 180.039062 193.597656 C 180.039062 192.433594 179.375 191.367188 178.320312 190.863281 L 93.90625 150.222656 C 92.96875 149.769531 91.863281 149.828125 90.976562 150.386719 Z M 111.140625 193.175781 C 112.359375 190.636719 114.972656 188.988281 117.792969 188.988281 C 118.910156 188.988281 119.984375 189.242188 121.011719 189.738281 L 152.117188 204.695312 C 153.894531 205.550781 155.230469 207.046875 155.878906 208.917969 C 156.53125 210.777344 156.421875 212.785156 155.5625 214.574219 C 153.875 218.09375 149.34375 219.789062 145.699219 218.011719 L 114.597656 203.050781 C 112.820312 202.203125 111.484375 200.710938 110.828125 198.847656 C 110.167969 196.984375 110.28125 194.972656 111.140625 193.175781 Z M 111.140625 193.175781 "/><path style=" stroke:none;fill-rule:nonzero;fill:#bf726b;fill-opacity:1;" d="M 194.84375 193.601562 L 194.84375 283.761719 C 194.84375 284.804688 195.378906 285.78125 196.265625 286.332031 C 196.757812 286.636719 197.320312 286.789062 197.882812 286.789062 C 198.328125 286.789062 198.78125 286.699219 199.195312 286.5 L 283.613281 245.855469 C 284.667969 245.347656 285.332031 244.289062 285.332031 243.121094 L 285.332031 153.011719 C 285.332031 151.960938 284.800781 150.992188 283.914062 150.4375 C 283.035156 149.882812 281.914062 149.820312 280.980469 150.265625 L 196.5625 190.863281 C 195.507812 191.371094 194.84375 192.4375 194.84375 193.601562 Z M 194.84375 193.601562 "/><path style=" stroke:none;fill-rule:nonzero;fill:#bf726b;fill-opacity:1;" d="M 269.988281 133.628906 L 241.449219 119.886719 C 240.621094 119.484375 239.652344 119.484375 238.820312 119.886719 L 157.566406 158.910156 C 156.519531 159.417969 155.84375 160.476562 155.84375 161.648438 C 155.84375 162.8125 156.515625 163.878906 157.566406 164.378906 L 186.128906 178.125 C 186.542969 178.324219 186.992188 178.429688 187.445312 178.429688 C 187.894531 178.429688 188.347656 178.324219 188.761719 178.125 L 269.988281 139.097656 C 271.039062 138.59375 271.710938 137.535156 271.710938 136.363281 C 271.707031 135.203125 271.039062 134.140625 269.988281 133.628906 Z M 269.988281 133.628906 "/><path style=" stroke:none;fill-rule:nonzero;fill:#bf726b;fill-opacity:1;" d="M 44.851562 258.265625 C 45.792969 258.265625 46.75 258.085938 47.679688 257.714844 C 51.570312 256.144531 53.453125 251.730469 51.886719 247.835938 C 27.71875 187.8125 45.378906 120.183594 95.820312 79.554688 C 148.238281 37.328125 221.183594 37.347656 273.234375 75.09375 L 258.894531 86.636719 C 256.496094 88.566406 255.507812 91.746094 256.371094 94.691406 C 257.234375 97.632812 259.789062 99.777344 262.84375 100.101562 L 306.691406 104.816406 C 306.964844 104.84375 307.238281 104.863281 307.519531 104.863281 C 311.34375 104.863281 314.632812 101.980469 315.050781 98.085938 L 319.78125 54.253906 C 320.113281 51.199219 318.566406 48.246094 315.875 46.78125 C 313.179688 45.300781 309.867188 45.589844 307.472656 47.53125 L 285.457031 65.253906 C 227.796875 21.144531 145.273438 20.214844 86.296875 67.726562 C 30.609375 112.582031 11.125 187.238281 37.804688 253.503906 C 38.996094 256.464844 41.84375 258.265625 44.851562 258.265625 Z M 44.851562 258.265625 "/><g clip-rule="nonzero" clip-path="url(#155a29d8f4)"><path style=" stroke:none;fill-rule:nonzero;fill:#bf726b;fill-opacity:1;" d="M 336.5 131.570312 C 334.894531 127.699219 330.457031 125.867188 326.570312 127.46875 C 322.699219 129.078125 320.863281 133.519531 322.46875 137.386719 C 347.148438 196.855469 329.3125 266.640625 279.109375 307.089844 C 226.695312 349.316406 153.75 349.285156 101.691406 311.539062 L 116.019531 299.996094 C 118.414062 298.074219 119.40625 294.890625 118.539062 291.953125 C 117.675781 289.003906 115.121094 286.867188 112.070312 286.539062 L 68.230469 281.804688 C 66.191406 281.578125 64.222656 282.175781 62.652344 283.441406 C 61.082031 284.703125 60.085938 286.539062 59.867188 288.542969 L 55.144531 332.382812 C 54.816406 335.433594 56.359375 338.382812 59.050781 339.851562 C 60.195312 340.472656 61.445312 340.785156 62.691406 340.785156 C 64.390625 340.785156 66.078125 340.214844 67.457031 339.101562 L 89.472656 321.375 C 118.054688 343.242188 152.726562 354.523438 187.636719 354.511719 C 223.148438 354.511719 258.890625 342.871094 288.636719 318.914062 C 344.0625 274.261719 363.742188 197.226562 336.5 131.570312 Z M 336.5 131.570312 "/></g></g></svg>