<svg xmlns="http://www.w3.org/2000/svg" xmlns:xlink="http://www.w3.org/1999/xlink" width="500" zoomAndPan="magnify" viewBox="0 0 375 374.999991" height="500" preserveAspectRatio="xMidYMid meet" version="1.2"><defs><clipPath id="14b60b53f9"><path d="M 0 60.992188 L 374 60.992188 L 374 313.742188 L 0 313.742188 Z M 0 60.992188 "/></clipPath></defs><g id="9db26ebfd9"><g clip-rule="nonzero" clip-path="url(#14b60b53f9)"><path style=" stroke:none;fill-rule:nonzero;fill:#bf726b;fill-opacity:1;" d="M 346.230469 125.089844 L 293.40625 125.089844 C 293.148438 125.097656 292.890625 125.078125 292.636719 125.027344 C 292.386719 124.980469 292.140625 124.902344 291.902344 124.800781 C 291.667969 124.695312 291.445312 124.566406 291.238281 124.414062 C 291.03125 124.261719 290.84375 124.089844 290.671875 123.894531 C 290.503906 123.699219 290.359375 123.488281 290.234375 123.261719 C 290.113281 123.035156 290.015625 122.796875 289.945312 122.546875 C 289.878906 122.300781 289.835938 122.046875 289.820312 121.789062 C 289.808594 121.53125 289.824219 121.277344 289.867188 121.023438 L 297.144531 65.0625 C 297.1875 64.808594 297.203125 64.554688 297.1875 64.300781 C 297.175781 64.042969 297.132812 63.789062 297.066406 63.542969 C 296.996094 63.296875 296.902344 63.058594 296.78125 62.832031 C 296.660156 62.605469 296.515625 62.394531 296.347656 62.203125 C 296.179688 62.007812 295.992188 61.832031 295.785156 61.679688 C 295.578125 61.527344 295.359375 61.398438 295.125 61.292969 C 294.890625 61.191406 294.644531 61.113281 294.394531 61.0625 C 294.144531 61.011719 293.886719 60.988281 293.632812 60.992188 L 59.308594 60.992188 C 58.363281 61.019531 57.429688 61.125 56.507812 61.3125 C 55.582031 61.503906 54.683594 61.769531 53.804688 62.113281 C 52.925781 62.460938 52.085938 62.878906 51.28125 63.371094 C 50.480469 63.867188 49.722656 64.425781 49.015625 65.050781 C 48.3125 65.675781 47.664062 66.355469 47.078125 67.09375 C 46.488281 67.832031 45.972656 68.613281 45.519531 69.445312 C 45.070312 70.273438 44.695312 71.132812 44.398438 72.027344 C 44.097656 72.921875 43.878906 73.835938 43.738281 74.769531 L 42.273438 86.015625 L 132.605469 86.015625 C 133.027344 86.003906 133.449219 86.015625 133.871094 86.050781 C 134.292969 86.085938 134.710938 86.144531 135.128906 86.226562 C 135.542969 86.308594 135.953125 86.414062 136.355469 86.539062 C 136.761719 86.664062 137.15625 86.8125 137.542969 86.984375 C 137.929688 87.15625 138.308594 87.34375 138.675781 87.558594 C 139.039062 87.769531 139.394531 88 139.734375 88.25 C 140.074219 88.5 140.402344 88.769531 140.714844 89.054688 C 141.023438 89.34375 141.320312 89.644531 141.597656 89.964844 C 141.875 90.285156 142.136719 90.617188 142.378906 90.964844 C 142.617188 91.3125 142.839844 91.671875 143.042969 92.042969 C 143.242188 92.414062 143.425781 92.796875 143.582031 93.191406 C 143.742188 93.582031 143.882812 93.980469 143.996094 94.386719 C 144.113281 94.796875 144.207031 95.207031 144.277344 95.625 C 144.347656 96.042969 144.394531 96.460938 144.417969 96.882812 C 144.441406 97.308594 144.441406 97.730469 144.417969 98.152344 C 144.394531 98.574219 144.351562 98.996094 144.28125 99.410156 C 144.144531 100.320312 143.929688 101.207031 143.636719 102.078125 C 143.34375 102.945312 142.976562 103.785156 142.539062 104.589844 C 142.097656 105.394531 141.59375 106.15625 141.019531 106.875 C 140.449219 107.59375 139.820312 108.253906 139.128906 108.863281 C 138.441406 109.46875 137.707031 110.011719 136.925781 110.492188 C 136.144531 110.972656 135.324219 111.378906 134.472656 111.714844 C 133.617188 112.050781 132.742188 112.3125 131.839844 112.496094 C 130.941406 112.679688 130.035156 112.78125 129.117188 112.808594 L 6.230469 112.808594 C 5.617188 112.8125 5.011719 112.875 4.414062 112.988281 C 3.8125 113.101562 3.226562 113.265625 2.65625 113.484375 C 2.082031 113.699219 1.535156 113.96875 1.011719 114.28125 C 0.488281 114.597656 -0.00390625 114.957031 -0.464844 115.359375 C -0.921875 115.761719 -1.34375 116.199219 -1.726562 116.679688 C -2.109375 117.15625 -2.445312 117.664062 -2.734375 118.199219 C -3.027344 118.738281 -3.269531 119.296875 -3.460938 119.875 C -3.652344 120.457031 -3.792969 121.050781 -3.878906 121.652344 L -3.878906 121.90625 C -3.964844 122.453125 -3.992188 123 -3.960938 123.550781 C -3.925781 124.101562 -3.835938 124.644531 -3.683594 125.175781 C -3.53125 125.707031 -3.324219 126.214844 -3.0625 126.699219 C -2.800781 127.183594 -2.488281 127.636719 -2.128906 128.054688 C -1.765625 128.472656 -1.363281 128.84375 -0.921875 129.175781 C -0.480469 129.503906 -0.0078125 129.785156 0.496094 130.011719 C 1 130.238281 1.523438 130.40625 2.0625 130.519531 C 2.605469 130.632812 3.148438 130.683594 3.703125 130.675781 L 126.867188 130.675781 C 127.289062 130.664062 127.710938 130.675781 128.132812 130.710938 C 128.554688 130.746094 128.972656 130.804688 129.390625 130.886719 C 129.804688 130.96875 130.214844 131.074219 130.617188 131.199219 C 131.019531 131.324219 131.414062 131.472656 131.804688 131.644531 C 132.191406 131.816406 132.566406 132.003906 132.933594 132.21875 C 133.300781 132.429688 133.652344 132.660156 133.992188 132.910156 C 134.335938 133.160156 134.660156 133.429688 134.972656 133.71875 C 135.28125 134.003906 135.578125 134.304688 135.855469 134.625 C 136.132812 134.945312 136.390625 135.277344 136.632812 135.625 C 136.871094 135.972656 137.09375 136.332031 137.292969 136.707031 C 137.496094 137.078125 137.675781 137.460938 137.835938 137.851562 C 137.992188 138.242188 138.128906 138.644531 138.246094 139.050781 C 138.359375 139.457031 138.453125 139.871094 138.523438 140.289062 C 138.589844 140.703125 138.636719 141.125 138.660156 141.546875 C 138.683594 141.96875 138.683594 142.390625 138.660156 142.8125 C 138.636719 143.234375 138.589844 143.65625 138.519531 144.074219 C 138.382812 144.980469 138.167969 145.871094 137.875 146.738281 C 137.582031 147.609375 137.21875 148.449219 136.78125 149.253906 C 136.339844 150.0625 135.835938 150.824219 135.261719 151.539062 C 134.691406 152.257812 134.0625 152.921875 133.375 153.527344 C 132.683594 154.136719 131.949219 154.679688 131.167969 155.160156 C 130.382812 155.636719 129.566406 156.046875 128.710938 156.382812 C 127.855469 156.71875 126.980469 156.976562 126.078125 157.160156 C 125.179688 157.34375 124.273438 157.445312 123.355469 157.46875 L 32.011719 157.46875 C 31.410156 157.484375 30.816406 157.554688 30.230469 157.675781 C 29.640625 157.796875 29.066406 157.964844 28.511719 158.1875 C 27.953125 158.40625 27.417969 158.675781 26.90625 158.988281 C 26.394531 159.300781 25.914062 159.65625 25.464844 160.054688 C 25.015625 160.453125 24.605469 160.886719 24.230469 161.355469 C 23.855469 161.824219 23.527344 162.324219 23.238281 162.851562 C 22.953125 163.378906 22.714844 163.925781 22.523438 164.496094 C 22.332031 165.066406 22.191406 165.644531 22.101562 166.238281 L 22.101562 166.492188 C 22.015625 167.035156 21.988281 167.585938 22.023438 168.136719 C 22.054688 168.6875 22.148438 169.226562 22.300781 169.757812 C 22.449219 170.289062 22.65625 170.796875 22.921875 171.285156 C 23.183594 171.769531 23.496094 172.222656 23.855469 172.640625 C 24.214844 173.058594 24.617188 173.429688 25.0625 173.761719 C 25.503906 174.089844 25.976562 174.367188 26.480469 174.59375 C 26.984375 174.820312 27.503906 174.992188 28.046875 175.105469 C 28.585938 175.214844 29.132812 175.269531 29.683594 175.261719 L 121.054688 175.261719 C 121.472656 175.253906 121.890625 175.269531 122.308594 175.308594 C 122.726562 175.347656 123.140625 175.410156 123.550781 175.492188 C 123.960938 175.578125 124.363281 175.683594 124.765625 175.8125 C 125.164062 175.9375 125.554688 176.089844 125.9375 176.257812 C 126.320312 176.429688 126.691406 176.621094 127.050781 176.832031 C 127.414062 177.042969 127.761719 177.273438 128.101562 177.523438 C 128.4375 177.773438 128.757812 178.039062 129.066406 178.324219 C 129.371094 178.609375 129.664062 178.910156 129.9375 179.226562 C 130.210938 179.542969 130.46875 179.875 130.707031 180.21875 C 130.945312 180.5625 131.164062 180.917969 131.363281 181.289062 C 131.5625 181.65625 131.742188 182.035156 131.898438 182.421875 C 132.058594 182.808594 132.195312 183.207031 132.308594 183.609375 C 132.425781 184.011719 132.515625 184.417969 132.585938 184.832031 C 132.65625 185.246094 132.703125 185.660156 132.730469 186.078125 C 132.753906 186.496094 132.757812 186.914062 132.734375 187.335938 C 132.714844 187.753906 132.671875 188.167969 132.605469 188.582031 C 132.46875 189.492188 132.257812 190.378906 131.964844 191.25 C 131.671875 192.121094 131.308594 192.960938 130.871094 193.765625 C 130.429688 194.574219 129.925781 195.335938 129.355469 196.054688 C 128.78125 196.773438 128.152344 197.4375 127.464844 198.042969 C 126.777344 198.652344 126.039062 199.195312 125.257812 199.675781 C 124.472656 200.152344 123.652344 200.5625 122.800781 200.894531 C 121.945312 201.230469 121.066406 201.488281 120.167969 201.671875 C 119.265625 201.851562 118.359375 201.957031 117.441406 201.976562 L 19.851562 201.976562 C 19.253906 201.996094 18.660156 202.0625 18.070312 202.183594 C 17.484375 202.304688 16.910156 202.476562 16.351562 202.695312 C 15.792969 202.914062 15.257812 203.183594 14.75 203.496094 C 14.238281 203.8125 13.757812 204.167969 13.308594 204.566406 C 12.859375 204.960938 12.445312 205.394531 12.074219 205.867188 C 11.699219 206.335938 11.367188 206.832031 11.082031 207.359375 C 10.796875 207.886719 10.558594 208.4375 10.367188 209.003906 C 10.175781 209.574219 10.035156 210.15625 9.945312 210.75 C 9.859375 211.292969 9.832031 211.839844 9.867188 212.394531 C 9.898438 212.945312 9.992188 213.484375 10.140625 214.015625 C 10.292969 214.546875 10.5 215.054688 10.761719 215.539062 C 11.023438 216.027344 11.335938 216.476562 11.699219 216.894531 C 12.058594 217.3125 12.460938 217.6875 12.902344 218.015625 C 13.347656 218.347656 13.820312 218.625 14.324219 218.851562 C 14.828125 219.078125 15.347656 219.246094 15.890625 219.359375 C 16.429688 219.472656 16.976562 219.527344 17.527344 219.519531 L 24.832031 219.519531 L 20.460938 253.5625 C 20.386719 253.992188 20.339844 254.425781 20.316406 254.859375 C 20.292969 255.292969 20.292969 255.726562 20.316406 256.160156 C 20.339844 256.597656 20.386719 257.027344 20.457031 257.457031 C 20.53125 257.886719 20.625 258.308594 20.742188 258.726562 C 20.859375 259.144531 21 259.558594 21.164062 259.960938 C 21.328125 260.363281 21.511719 260.753906 21.71875 261.136719 C 21.925781 261.519531 22.152344 261.890625 22.402344 262.25 C 22.648438 262.605469 22.914062 262.949219 23.203125 263.277344 C 23.488281 263.605469 23.789062 263.917969 24.109375 264.210938 C 24.429688 264.507812 24.761719 264.78125 25.113281 265.039062 C 25.464844 265.296875 25.828125 265.535156 26.203125 265.753906 C 26.582031 265.972656 26.96875 266.167969 27.367188 266.34375 C 27.765625 266.519531 28.171875 266.671875 28.585938 266.800781 C 29 266.929688 29.421875 267.039062 29.847656 267.121094 C 30.273438 267.207031 30.703125 267.265625 31.136719 267.300781 C 31.570312 267.339844 32.003906 267.351562 32.441406 267.339844 L 51.015625 267.339844 C 47.65625 292.96875 65.753906 313.742188 91.382812 313.742188 C 117.011719 313.742188 140.492188 292.96875 143.851562 267.339844 L 240.859375 267.339844 C 237.519531 292.96875 255.617188 313.742188 281.296875 313.742188 C 306.976562 313.742188 330.40625 292.96875 333.742188 267.339844 L 359.574219 267.339844 C 360.140625 267.324219 360.6875 267.210938 361.214844 267 C 361.742188 266.789062 362.214844 266.492188 362.636719 266.113281 C 363.058594 265.734375 363.402344 265.292969 363.664062 264.789062 C 363.929688 264.289062 364.097656 263.757812 364.175781 263.195312 L 373.929688 188.40625 Z M 125.148438 268.25 C 124.820312 270.050781 124.347656 271.808594 123.722656 273.53125 C 123.101562 275.253906 122.339844 276.910156 121.441406 278.503906 C 120.542969 280.097656 119.515625 281.605469 118.367188 283.03125 C 117.214844 284.453125 115.953125 285.769531 114.582031 286.984375 C 113.210938 288.195312 111.75 289.285156 110.195312 290.253906 C 108.640625 291.21875 107.019531 292.050781 105.324219 292.75 C 103.632812 293.445312 101.894531 293.996094 100.109375 294.402344 C 98.324219 294.808594 96.519531 295.0625 94.691406 295.167969 C 93.777344 295.222656 92.859375 295.226562 91.941406 295.175781 C 91.027344 295.128906 90.113281 295.027344 89.210938 294.875 C 88.304688 294.71875 87.410156 294.515625 86.527344 294.257812 C 85.648438 294.003906 84.78125 293.699219 83.9375 293.34375 C 83.089844 292.988281 82.265625 292.585938 81.464844 292.136719 C 80.664062 291.6875 79.890625 291.191406 79.148438 290.65625 C 78.402344 290.117188 77.691406 289.539062 77.015625 288.917969 C 76.335938 288.300781 75.695312 287.644531 75.09375 286.949219 C 74.492188 286.257812 73.929688 285.535156 73.410156 284.777344 C 72.890625 284.019531 72.417969 283.234375 71.988281 282.421875 C 71.558594 281.613281 71.175781 280.777344 70.839844 279.925781 C 70.507812 279.070312 70.222656 278.195312 69.988281 277.308594 C 69.753906 276.421875 69.570312 275.523438 69.4375 274.613281 C 69.308594 273.707031 69.230469 272.792969 69.203125 271.875 C 69.175781 270.957031 69.199219 270.039062 69.28125 269.125 C 69.359375 268.210938 69.488281 267.304688 69.671875 266.402344 C 69.996094 264.609375 70.46875 262.851562 71.089844 261.136719 C 71.707031 259.417969 72.464844 257.765625 73.359375 256.171875 C 74.253906 254.582031 75.273438 253.078125 76.421875 251.65625 C 77.566406 250.234375 78.820312 248.917969 80.1875 247.707031 C 81.550781 246.496094 83.007812 245.40625 84.554688 244.4375 C 86.101562 243.46875 87.71875 242.632812 89.402344 241.933594 C 91.089844 241.234375 92.820312 240.679688 94.601562 240.269531 C 96.378906 239.859375 98.179688 239.597656 100 239.484375 C 100.917969 239.425781 101.839844 239.417969 102.757812 239.460938 C 103.679688 239.507812 104.59375 239.601562 105.5 239.753906 C 106.410156 239.902344 107.308594 240.105469 108.191406 240.359375 C 109.078125 240.609375 109.945312 240.914062 110.796875 241.265625 C 111.648438 241.617188 112.476562 242.019531 113.28125 242.46875 C 114.085938 242.914062 114.863281 243.40625 115.609375 243.945312 C 116.359375 244.480469 117.074219 245.058594 117.753906 245.679688 C 118.4375 246.296875 119.082031 246.953125 119.6875 247.648438 C 120.292969 248.339844 120.859375 249.066406 121.382812 249.824219 C 121.902344 250.585938 122.382812 251.371094 122.8125 252.183594 C 123.246094 252.996094 123.632812 253.832031 123.96875 254.6875 C 124.304688 255.546875 124.589844 256.421875 124.824219 257.308594 C 125.0625 258.199219 125.246094 259.101562 125.378906 260.011719 C 125.511719 260.925781 125.589844 261.839844 125.617188 262.761719 C 125.644531 263.683594 125.621094 264.601562 125.542969 265.519531 C 125.460938 266.4375 125.332031 267.347656 125.148438 268.25 Z M 315.015625 268.25 C 314.6875 270.042969 314.214844 271.800781 313.597656 273.519531 C 312.976562 275.234375 312.21875 276.890625 311.324219 278.480469 C 310.429688 280.070312 309.410156 281.574219 308.265625 282.996094 C 307.117188 284.417969 305.863281 285.734375 304.496094 286.945312 C 303.132812 288.15625 301.675781 289.246094 300.128906 290.214844 C 298.582031 291.183594 296.964844 292.019531 295.28125 292.71875 C 293.59375 293.417969 291.863281 293.972656 290.085938 294.382812 C 288.304688 294.796875 286.507812 295.054688 284.683594 295.167969 C 283.769531 295.222656 282.851562 295.226562 281.933594 295.175781 C 281.019531 295.128906 280.105469 295.027344 279.203125 294.875 C 278.296875 294.71875 277.402344 294.515625 276.519531 294.257812 C 275.640625 294.003906 274.773438 293.699219 273.929688 293.34375 C 273.082031 292.988281 272.257812 292.585938 271.457031 292.136719 C 270.65625 291.6875 269.882812 291.191406 269.140625 290.65625 C 268.394531 290.117188 267.683594 289.539062 267.007812 288.917969 C 266.328125 288.300781 265.6875 287.644531 265.085938 286.949219 C 264.484375 286.257812 263.921875 285.535156 263.402344 284.777344 C 262.882812 284.019531 262.410156 283.234375 261.980469 282.425781 C 261.550781 281.613281 261.167969 280.777344 260.832031 279.925781 C 260.5 279.070312 260.214844 278.195312 259.980469 277.308594 C 259.746094 276.421875 259.5625 275.523438 259.429688 274.613281 C 259.300781 273.707031 259.222656 272.792969 259.195312 271.875 C 259.167969 270.957031 259.191406 270.039062 259.273438 269.125 C 259.351562 268.210938 259.480469 267.304688 259.664062 266.402344 C 259.988281 264.609375 260.460938 262.851562 261.082031 261.136719 C 261.699219 259.417969 262.457031 257.765625 263.351562 256.171875 C 264.246094 254.582031 265.265625 253.078125 266.414062 251.65625 C 267.558594 250.234375 268.8125 248.917969 270.179688 247.707031 C 271.542969 246.496094 273 245.40625 274.546875 244.4375 C 276.09375 243.46875 277.710938 242.632812 279.394531 241.933594 C 281.082031 241.234375 282.8125 240.679688 284.59375 240.269531 C 286.371094 239.859375 288.171875 239.597656 289.992188 239.484375 C 290.910156 239.429688 291.824219 239.425781 292.742188 239.476562 C 293.660156 239.523438 294.570312 239.625 295.476562 239.78125 C 296.378906 239.933594 297.273438 240.136719 298.15625 240.394531 C 299.039062 240.648438 299.902344 240.957031 300.75 241.308594 C 301.59375 241.664062 302.417969 242.066406 303.21875 242.515625 C 304.019531 242.964844 304.792969 243.460938 305.539062 243.996094 C 306.28125 244.535156 306.992188 245.113281 307.671875 245.734375 C 308.347656 246.351562 308.988281 247.007812 309.589844 247.703125 C 310.195312 248.394531 310.753906 249.121094 311.273438 249.875 C 311.792969 250.632812 312.269531 251.417969 312.699219 252.230469 C 313.128906 253.039062 313.511719 253.875 313.84375 254.730469 C 314.179688 255.585938 314.460938 256.457031 314.695312 257.34375 C 314.929688 258.230469 315.113281 259.128906 315.246094 260.039062 C 315.375 260.945312 315.457031 261.859375 315.484375 262.777344 C 315.507812 263.695312 315.484375 264.613281 315.40625 265.527344 C 315.328125 266.441406 315.195312 267.347656 315.015625 268.25 Z M 281.324219 188.480469 L 286.605469 148.042969 L 334.097656 148.042969 L 352.347656 188.65625 Z M 281.324219 188.480469 "/></g></g></svg>