<svg xmlns="http://www.w3.org/2000/svg" xmlns:xlink="http://www.w3.org/1999/xlink" width="500" zoomAndPan="magnify" viewBox="0 0 375 374.999991" height="500" preserveAspectRatio="xMidYMid meet" version="1.2"><defs><clipPath id="19d57197c5"><path d="M 30 9.402344 L 345 9.402344 L 345 365.652344 L 30 365.652344 Z M 30 9.402344 "/></clipPath></defs><g id="d48965f8bf"><g clip-rule="nonzero" clip-path="url(#19d57197c5)"><path style=" stroke:none;fill-rule:evenodd;fill:#bf726b;fill-opacity:1;" d="M 344.609375 208.0625 L 344.609375 57.144531 C 344.609375 53.535156 342.851562 50.148438 339.890625 48.070312 C 289.195312 12.484375 238.449219 9.257812 187.453125 9.320312 C 136.78125 9.382812 86.050781 12.601562 35.082031 48.042969 C 32.105469 50.117188 30.328125 53.515625 30.328125 57.144531 C 30.328125 57.144531 30.328125 133.019531 30.328125 208.0625 C 30.328125 294.847656 100.683594 365.203125 187.46875 365.203125 L 187.46875 354.113281 C 187.46875 365.203125 187.46875 365.203125 187.46875 365.203125 C 274.257812 365.203125 344.609375 294.847656 344.609375 208.0625 Z M 322.433594 63.019531 C 277.601562 33.511719 232.558594 31.441406 187.480469 31.496094 C 142.644531 31.550781 97.597656 33.636719 52.503906 63.050781 L 52.503906 208.0625 C 52.503906 282.601562 112.929688 343.027344 187.46875 343.027344 C 187.46875 343.027344 187.46875 354.113281 187.46875 354.113281 L 187.46875 343.027344 C 262.007812 343.027344 322.433594 282.601562 322.433594 208.0625 Z M 322.433594 63.019531 "/></g><path style=" stroke:none;fill-rule:evenodd;fill:#bf726b;fill-opacity:1;" d="M 256.980469 179.101562 C 256.980469 172.976562 252.011719 168.015625 245.890625 168.015625 L 129.046875 168.015625 C 122.921875 168.015625 117.960938 172.976562 117.960938 179.101562 L 117.960938 260.695312 C 117.960938 266.816406 122.921875 271.78125 129.046875 271.78125 L 245.890625 271.78125 C 252.011719 271.78125 256.980469 266.816406 256.980469 260.695312 Z M 256.980469 179.101562 "/><path style=" stroke:none;fill-rule:evenodd;fill:#bf726b;fill-opacity:1;" d="M 242.375 157.644531 C 242.375 143.082031 236.585938 129.117188 226.292969 118.824219 C 215.996094 108.527344 202.027344 102.742188 187.46875 102.742188 L 187.46875 113.828125 C 187.46875 102.742188 187.46875 102.742188 187.46875 102.742188 C 172.90625 102.742188 158.941406 108.527344 148.648438 118.824219 C 138.347656 129.117188 132.566406 143.082031 132.566406 157.644531 C 132.566406 169.492188 132.566406 179.101562 132.566406 179.101562 C 132.566406 185.226562 137.527344 190.191406 143.652344 190.191406 L 231.285156 190.191406 C 237.40625 190.191406 242.375 185.226562 242.375 179.101562 Z M 220.195312 168.015625 L 220.195312 157.644531 C 220.195312 148.964844 216.746094 140.636719 210.613281 134.503906 C 204.472656 128.367188 196.148438 124.914062 187.46875 124.914062 L 187.46875 113.832031 L 187.46875 124.914062 C 178.789062 124.914062 170.464844 128.367188 164.328125 134.503906 C 158.1875 140.636719 154.742188 148.964844 154.742188 157.644531 L 154.742188 168.015625 Z M 220.195312 168.015625 "/></g></svg>